<svg xmlns="http://www.w3.org/2000/svg" width="1024" height="1024" xmlns:v="https://vecta.io/nano"><rect width="1024" height="1024" ry="116.589" fill="#f47529"/><path d="M228.42 513.534a11.96 11.96 0 0 0 11.96 11.96h43.832a11.96 11.96 0 1 0 0-23.92H240.38c-6.607.01-11.96 5.364-11.96 11.96zm512.06 11.96h43.832a11.96 11.96 0 1 0 0-23.92H740.48a11.96 11.96 0 1 0 0 23.92zM525.05 785.507v-43.832a11.96 11.96 0 1 0-23.92 0v43.832a11.96 11.96 0 0 0 11.96 11.96c6.607-.01 11.96-5.364 11.96-11.96zm-.873-494.133v-43.832a11.96 11.96 0 1 0-23.92 0v43.832a11.96 11.96 0 1 0 23.92 0zm502.095-92.647L512.217 525.495l-219.17-113.578 219.17 231.12 284.1-245.566c14.648 35.802 22.733 74.975 22.733 116.052 0 169.46-137.375 306.834-306.834 306.834S205.383 682.994 205.383 513.534 342.758 206.7 512.217 206.7c31.513 0 61.918 4.76 90.542 13.584 70.006 21.684 121.757 63.114 158.428 113.902l250.135-158.988L778.6 270.432c-65.95-72.22-160.87-117.53-266.373-117.53-199.17 0-360.633 161.463-360.633 360.633s161.463 360.633 360.633 360.633S872.85 712.704 872.85 513.534c0-54.65-12.173-106.455-33.932-152.874z" fill="#fff"/></svg>
